#!OML:ASF X:\für Bonn\!DataBase\2005_08_12_Daniel\c3d\Daniel.ASF
:FULLY-SPECIFIED
:DEGREES
141
root 10.8031 6.35547 -1.58743 -1086.55 -39.5359 -40.3261
lowerback 79.3908 0.561309 4.86727
upperback 11.9377 0.0826412 -6.07523
thorax -7.01373 -0.494947 -8.98391
lowerneck 1.96419 8.46433 -9.42406
upperneck 3.63639 11.0042 -3.96307
head 0.526356 5.25179 0.244062
rclavicle -1.43125e-013 2.54444e-014
rhumerus -33.8218 14.1649 -81.5867
rradius 41.2766
rwrist 14.3697
rhand -20.8642 -343.397
rfingers 7.12502
rthumb 5.5055 -373.305
lclavicle -1.43125e-013 2.54444e-014
lhumerus -713.393 38.5507 -656.968
lradius 19.8899
lwrist -36.1065
lhand -68.4268 309.232
lfingers 7.12502
lthumb -40.1309 334.418
rfemur 274.567 -46.2174 414.142
rtibia 133.483
rfoot -5.72599 37.0209
rtoes 14.7172
lfemur -42.6717 39.027 10.8211
ltibia 153.465
lfoot 29.9301 -43.8541
ltoes 19.1093
142
root 10.8995 6.23014 -1.49119 -1086.51 -40.8695 -40.6883
lowerback 78.9513 0.631487 5.1323
upperback 12.0382 0.303359 -6.11253
thorax -6.91452 -0.401458 -9.22134
lowerneck 2.29145 8.41029 -9.71302
upperneck 3.75915 10.8846 -4.08435
head 0.506952 5.18121 0.24027
rclavicle 2.54444e-014 -3.49861e-014
rhumerus -34.3159 14.1114 -82.1243
rradius 40.6977
rwrist 14.7006
rhand -21.1671 -343.249
rfingers 7.12502
rthumb 5.21305 -373.165
lclavicle 2.54444e-014 -3.49861e-014
lhumerus -713.948 38.6037 -656.168
lradius 19.8679
lwrist -36.1246
lhand -68.4624 308.768
lfingers 7.12502
lthumb -40.1644 333.945
rfemur 274.084 -47.9979 413.742
rtibia 134.223
rfoot -5.36054 37.7301
rtoes 14.9845
lfemur -41.3239 40.6399 10.8264
ltibia 153.442
lfoot 30.5201 -43.8484
ltoes 20.0383
143
root 10.9935 6.10706 -1.39262 -1086.57 -42.2207 -40.9717
lowerback 78.5208 0.717747 5.36487
upperback 12.167 0.513786 -6.14202
thorax -6.78029 -0.312146 -9.43253
lowerneck 2.60602 8.36443 -10.0791
upperneck 3.88123 10.7721 -4.14557
head 0.482117 5.11347 0.266891
rclavicle 6.36111e-014 -5.40694e-014
rhumerus -34.6873 13.9596 -82.6192
rradius 39.9731
rwrist 15.2042
rhand -21.3094 -342.957
rfingers 7.12502
rthumb 5.07561 -372.876
lclavicle 6.36111e-014 -5.40694e-014
lhumerus -714.494 38.8041 -655.292
lradius 19.9416
lwrist -36.2403
lhand -68.5004 308.541
lfingers 7.12502
lthumb -40.2001 333.706
rfemur 273.597 -50.184 413.267
rtibia 134.97
rfoot -4.97903 38.6068
rtoes 15.177
lfemur -39.829 42.2703 10.8444
ltibia 153.326
lfoot 31.1482 -43.7799
ltoes 20.6928
144
root 11.0857 5.9882 -1.29352 -1086.64 -43.5438 -41.3032
lowerback 78.1671 0.765473 5.62957
upperback 12.269 0.7114 -6.16393
thorax -6.6659 -0.228252 -9.64299
lowerneck 3.0223 8.33964 -10.4514
upperneck 3.95532 10.6664 -4.19101
head 0.424908 5.05266 0.293508
rclavicle 0 3.81667e-014
rhumerus -35.042 13.8587 -83.1619
rradius 39.1726
rwrist 15.733
rhand -21.3121 -342.699
rfingers 7.12502
rthumb 5.07297 -372.619
lclavicle 0 3.81667e-014
lhumerus -715.205 38.8062 -654.587
lradius 20.0765
lwrist -36.189
lhand -68.5886 308.442
lfingers 7.12502
lthumb -40.283 333.582
rfemur 273.181 -52.6933 412.773
rtibia 135.66
rfoot -4.47615 39.6491
rtoes 15.6194
lfemur -38.2468 43.7893 11.0203
ltibia 153.121
lfoot 32.0127 -43.7656
ltoes 20.887
145
root 11.1765 5.8722 -1.19378 -1086.71 -44.8787 -41.7108
lowerback 77.8584 0.779208 5.93457
upperback 12.3717 0.897694 -6.20105
thorax -6.54371 -0.146359 -9.88361
lowerneck 3.44366 8.32632 -10.8113
upperneck 3.99949 10.5701 -4.19623
head 0.355779 4.99898 0.329929
rclavicle 2.54444e-014 -7.95139e-014
rhumerus -35.2913 13.6685 -83.7316
rradius 38.2439
rwrist 16.3607
rhand -21.2204 -342.383
rfingers 7.12502
rthumb 5.16152 -372.3
lclavicle 2.54444e-014 -7.95139e-014
lhumerus -716.021 38.6701 -654.006
lradius 20.2817
lwrist -35.9658
lhand -68.677 308.433
lfingers 7.12502
lthumb -40.3662 333.547
rfemur 272.835 -55.3539 412.271
rtibia 136.29
rfoot -3.80045 40.7329
rtoes 16.3193
lfemur -36.5871 45.2551 11.3608
ltibia 152.848
lfoot 32.9182 -43.89
ltoes 20.6697
146
root 11.2641 5.75765 -1.09483 -1086.81 -46.1951 -42.1071
lowerback 77.601 0.792801 6.22541
upperback 12.4608 1.07548 -6.22553
thorax -6.43057 -0.0695634 -10.1004
lowerneck 3.81286 8.3193 -11.1833
upperneck 4.07275 10.4874 -4.15102
head 0.300313 4.94996 0.387059
rclavicle -3.18055e-015 9.22361e-014
rhumerus -35.5013 13.5674 -84.3083
rradius 37.254
rwrist 16.9536
rhand -20.9807 -342.037
rfingers 7.12502
rthumb 5.39298 -371.948
lclavicle -3.18055e-015 9.22361e-014
lhumerus -716.996 38.0677 -653.627
lradius 20.5009
lwrist -35.3152
lhand -68.9083 308.674
lfingers 7.12502
lthumb -40.5836 333.721
rfemur 272.465 -58.2159 411.75
rtibia 136.898
rfoot -2.9363 41.9383
rtoes 17.1696
lfemur -34.8479 46.6397 11.8113
ltibia 152.533
lfoot 33.8675 -44.0901
ltoes 20.0979
147
root 11.35 5.64625 -0.995968 -1086.89 -47.5099 -42.5366
lowerback 77.3601 0.80786 6.5025
upperback 12.5485 1.24489 -6.23605
thorax -6.31669 0.00149911 -10.2916
lowerneck 4.02682 8.31512 -11.4989
upperneck 4.26688 10.4398 -4.11541
head 0.310362 4.90964 0.442364
rclavicle 1.04958e-013 3.81667e-014
rhumerus -35.6555 13.5502 -84.9136
rradius 36.1839
rwrist 17.5198
rhand -20.6754 -341.764
rfingers 7.12502
rthumb 5.68779 -371.668
lclavicle 1.04958e-013 3.81667e-014
lhumerus -718.026 37.2117 -653.368
lradius 20.6326
lwrist -34.3991
lhand -69.1514 308.507
lfingers 7.12502
lthumb -40.8121 333.482
rfemur 272.069 -60.9997 411.24
rtibia 137.454
rfoot -1.95336 43.099
rtoes 18.0233
lfemur -33.0178 47.9766 12.3797
ltibia 152.149
lfoot 34.9088 -44.2719
ltoes 19.3973
148
root 11.4334 5.53668 -0.899537 -1086.97 -48.788 -43.0112
lowerback 77.1779 0.80379 6.77378
upperback 12.6275 1.39148 -6.23357
thorax -6.20804 0.0602302 -10.4552
lowerneck 4.13637 8.30995 -11.7366
upperneck 4.49037 10.4128 -4.11736
head 0.352249 4.87739 0.479327
rclavicle 6.36111e-015 9.54166e-015
rhumerus -35.7635 13.6141 -85.5696
rradius 35.0667
rwrist 18.136
rhand -20.3663 -341.54
rfingers 7.12502
rthumb 5.98621 -371.435
lclavicle 6.36111e-015 9.54166e-015
lhumerus -719.066 36.1592 -653.181
lradius 20.6748
lwrist -33.3359
lhand -69.5576 308.368
lfingers 7.12502
lthumb -41.1936 333.223
rfemur 271.76 -63.7646 410.675
rtibia 137.958
rfoot -0.951541 44.2261
rtoes 18.7444
lfemur -31.1705 49.2089 13.0731
ltibia 151.75
lfoot 36.0354 -44.3774
ltoes 18.682
